<?xml version="1.0" standalone="no"?>
<!DOCTYPE svg PUBLIC "-//W3C//DTD SVG 20010904//EN"
 "http://www.w3.org/TR/2001/REC-SVG-20010904/DTD/svg10.dtd">
<svg version="1.0" xmlns="http://www.w3.org/2000/svg"
 width="512.000000pt" height="512.000000pt" viewBox="0 0 512.000000 512.000000"
 preserveAspectRatio="xMidYMid meet">
<metadata>
Created by potrace 1.11, written by Peter Selinger 2001-2013
</metadata>
<g transform="translate(0.000000,512.000000) scale(0.100000,-0.100000)"
fill="#000000" stroke="none">
<path d="M2378 5115 c-2 -1 -39 -5 -82 -9 -44 -4 -82 -9 -85 -11 -4 -2 -34 -7
-66 -10 -117 -14 -472 -111 -499 -136 -6 -5 -16 -9 -23 -9 -20 0 -214 -90
-311 -145 l-64 -35 -158 0 c-131 0 -161 -3 -174 -16 -18 -18 -18 -16 -18 -111
l1 -73 -83 0 c-112 0 -116 -5 -116 -141 l-1 -104 -52 -56 c-29 -31 -63 -71
-77 -89 -14 -18 -29 -38 -35 -44 -82 -92 -246 -369 -323 -546 -61 -142 -131
-351 -146 -443 -3 -15 -7 -35 -10 -45 -3 -9 -7 -34 -11 -56 -3 -21 -7 -41 -9
-45 -4 -6 -12 -72 -26 -201 -8 -85 -5 -454 4 -515 4 -22 13 -80 21 -130 29
-174 78 -357 142 -520 37 -93 124 -274 161 -335 12 -19 30 -51 41 -70 16 -29
128 -192 160 -233 418 -529 989 -860 1661 -963 165 -26 559 -26 725 0 339 52
658 165 946 336 134 80 210 134 353 255 443 372 767 946 862 1525 38 235 40
573 5 805 -96 632 -434 1215 -936 1616 -78 63 -199 147 -290 201 -73 44 -291
153 -325 163 -14 4 -29 11 -35 15 -16 11 -154 58 -250 84 -113 31 -251 60
-345 72 -25 3 -56 8 -70 10 -27 6 -456 14 -462 9z"/>
</g>
</svg>
